<svg xmlns="http://www.w3.org/2000/svg" width="221.03" height="221.03" viewBox="0 0 221.03 221.03">
  <defs>
    <style>
      .cls-t {
        fill: #ebebed;
        fill-rule: evenodd;
      }
    </style>
  </defs>
  <path id="g-t.svg" class="cls-t" d="M1167.55,1301.94l-57.49-57.49a5.546,5.546,0,0,1,3.92-9.47h57.49a5.557,5.557,0,0,1,5.55,5.55v57.49A5.546,5.546,0,0,1,1167.55,1301.94Zm37.73-37.73-57.49-57.49a5.546,5.546,0,0,1,3.92-9.47h57.49a5.544,5.544,0,0,1,5.55,5.55v57.49A5.546,5.546,0,0,1,1205.28,1264.21Zm38.21-38.21L1186,1168.51a5.555,5.555,0,0,1,3.93-9.48h57.49a5.557,5.557,0,0,1,5.55,5.55v57.49A5.555,5.555,0,0,1,1243.49,1226Zm38.28-38.28-57.49-57.49a5.546,5.546,0,0,1,3.92-9.47h57.49a5.544,5.544,0,0,1,5.55,5.55v57.49A5.546,5.546,0,0,1,1281.77,1187.72Zm38.22-38.22-57.49-57.49a5.546,5.546,0,0,1,3.92-9.47h57.49a5.557,5.557,0,0,1,5.55,5.55v57.49A5.546,5.546,0,0,1,1319.99,1149.5Z" transform="translate(-1108.44 -1082.53)"/>
</svg>
