<svg xmlns="http://www.w3.org/2000/svg" width="123.376" height="146.62" viewBox="0 0 123.376 146.62">
  <defs>
    <style>
      .cls-line {
        fill: #ebebed;
        fill-rule: evenodd;
      }
    </style>
  </defs>
  <path id="l.svg" class="cls-line" d="M202.616,1471.32h0a13.819,13.819,0,0,1-13.314-14.31l1.152-33.38a12.736,12.736,0,0,1,11.618-12.26l31.235-2.68a3.983,3.983,0,0,0,3.638-3.83l1.087-31.42a12.727,12.727,0,0,1,11.615-12.26l31.25-2.69a3.975,3.975,0,0,0,3.637-3.83l0.577-16.64a13.809,13.809,0,0,1,14.27-13.34h0a13.817,13.817,0,0,1,13.312,14.31l-1.158,33.39a12.727,12.727,0,0,1-11.615,12.25l-31.247,2.69a3.985,3.985,0,0,0-3.638,3.84l-1.087,31.42a12.725,12.725,0,0,1-11.618,12.25l-31.234,2.68a3.991,3.991,0,0,0-3.638,3.84l-0.574,16.62A13.809,13.809,0,0,1,202.616,1471.32Z" transform="translate(-189.312 -1324.69)"/>
</svg>
